<svg xmlns="http://www.w3.org/2000/svg" version="1.1" xmlns:xlink="http://www.w3.org/1999/xlink" xmlns:svgjs="http://svgjs.dev/svgjs" width="1500" height="1500" viewBox="0 0 1500 1500"><rect width="1500" height="1500" fill="#ffffff"></rect><g transform="matrix(0.6666666666666666,0,0,0.6666666666666666,249.39393939393938,586.8550020103813)"><svg viewBox="0 0 396 129" data-background-color="#ffffff" preserveAspectRatio="xMidYMid meet" height="488" width="1500" xmlns="http://www.w3.org/2000/svg" xmlns:xlink="http://www.w3.org/1999/xlink"><g id="tight-bounds" transform="matrix(1,0,0,1,0.2400000000000091,0.1896662110475802)"><svg viewBox="0 0 395.52 128.55915170385362" height="128.55915170385362" width="395.52"><g><svg viewBox="0 0 616.5152862654814 200.3910856966747" height="128.55915170385362" width="395.52"><g transform="matrix(1,0,0,1,219.01768626548156,61.923754136214605)"><svg viewBox="0 0 397.4975999999999 76.5435774242455" height="76.5435774242455" width="397.4975999999999"><g id="textblocktransform"><svg viewBox="0 0 397.4975999999999 76.5435774242455" height="76.5435774242455" width="397.4975999999999" id="textblock"><g><rect width="397.4975999999999" height="4.370141640270518" x="0" y="53.607726969806066" fill="#000000" opacity="1" stroke-width="0" stroke="transparent" fill-opacity="1" class="rect-yte-0" data-fill-palette-color="primary" rx="1%" id="yte-0" data-palette-color="#00c273"></rect></g><g transform="matrix(1,0,0,1,0.9887999999999693,0)"><svg viewBox="0 0 395.52 48.459654356921945" height="48.459654356921945" width="395.52"><g transform="matrix(1,0,0,1,0,0)"><svg width="395.52" viewBox="3.78 -33.13 274.82000000000005 33.68000000000001" height="48.459654356921945" data-palette-color="#00c273"><path d="M15.65-10.63L6.48-10.63 6.48-14.08 15.55-14.08Q18.82-14.08 20.3-15.71 21.78-17.35 21.78-20.23L21.78-20.23 21.78-22.4Q21.78-25.33 20.31-26.93 18.85-28.53 15.6-28.53L15.6-28.53 6.45-28.53 6.45-31.95 15.68-31.95Q21.03-31.95 23.46-29.44 25.9-26.93 25.9-22.53L25.9-22.53 25.9-20.13Q25.9-15.68 23.44-13.15 20.98-10.63 15.65-10.63L15.65-10.63ZM7.88 0L3.78 0 3.78-31.95 7.85-31.95 7.85-13.05 7.88-11.2 7.88 0ZM41.57 0.55L41.57 0.55Q36 0.55 33.17-2.18 30.35-4.9 30.35-9.98L30.35-9.98 30.35-14.33Q30.35-19.48 32.97-22.26 35.6-25.05 40.65-25.05L40.65-25.05Q44.05-25.05 46.32-23.79 48.6-22.53 49.75-20.2 50.9-17.88 50.9-14.65L50.9-14.65 50.9-13.75Q50.9-12.95 50.84-12.15 50.77-11.35 50.67-10.58L50.67-10.58 46.95-10.58Q47-11.78 47.01-12.85 47.02-13.93 47.02-14.83L47.02-14.83Q47.02-17.05 46.31-18.59 45.6-20.13 44.19-20.94 42.77-21.75 40.65-21.75L40.65-21.75Q37.5-21.75 35.92-19.93 34.35-18.1 34.35-14.7L34.35-14.7 34.35-12.38 34.37-11.88 34.37-9.55Q34.37-8.03 34.82-6.8 35.27-5.58 36.23-4.69 37.2-3.8 38.69-3.34 40.17-2.88 42.22-2.88L42.22-2.88Q44.6-2.88 46.65-3.5 48.7-4.13 50.5-5.2L50.5-5.2 50.12-1.7Q48.5-0.68 46.35-0.06 44.2 0.55 41.57 0.55ZM49.82-10.58L32.47-10.58 32.47-13.63 49.82-13.63 49.82-10.58ZM65.17 0.5L65.17 0.5Q62.35 0.5 60.62-0.35 58.9-1.2 58.12-2.93 57.35-4.65 57.35-7.23L57.35-7.23 57.35-22.63 61.35-22.63 61.35-7.7Q61.35-5.3 62.45-4.16 63.55-3.03 66.15-3.03L66.15-3.03Q67.62-3.03 68.98-3.35 70.34-3.68 71.55-4.28L71.55-4.28 71.17-0.8Q70-0.2 68.42 0.15 66.84 0.5 65.17 0.5ZM70.92-20.8L53.35-20.8 53.35-24.05 71.3-24.05 70.92-20.8ZM61.25-23.65L57.37-23.65 57.35-30.5 61.42-31.03 61.25-23.65ZM97.97 0L91.74 0 85.74-24.4 89.92-24.4 94.72-2.95 95.19-2.95 100.19-23.75 105.92-23.75 110.92-2.95 111.37-2.95 116.22-24.4 120.37-24.4 114.37 0 108.17 0 104.04-17.35 103.24-20.83 102.87-20.83 102.09-17.35 97.97 0ZM143.56 0L139.54 0 139.71-5.93 139.56-6.55 139.56-14.33 139.59-15.75Q139.59-18.73 138.08-20.15 136.56-21.58 133.29-21.58L133.29-21.58Q130.66-21.58 128.48-20.83 126.29-20.08 124.59-19.07L124.59-19.07 124.96-22.53Q125.91-23.1 127.23-23.66 128.54-24.23 130.23-24.6 131.91-24.98 133.94-24.98L133.94-24.98Q136.56-24.98 138.4-24.34 140.24-23.7 141.38-22.5 142.51-21.3 143.04-19.6 143.56-17.9 143.56-15.8L143.56-15.8 143.56 0ZM131.14 0.53L131.14 0.53Q127.51 0.53 125.58-1.24 123.64-3 123.64-6.28L123.64-6.28 123.64-7Q123.64-10.38 125.73-12.04 127.81-13.7 132.36-14.35L132.36-14.35 140.09-15.45 140.31-12.5 132.86-11.43Q130.06-11.03 128.86-10.06 127.66-9.1 127.66-7.23L127.66-7.23 127.66-6.83Q127.66-4.9 128.85-3.88 130.04-2.85 132.41-2.85L132.41-2.85Q134.51-2.85 136.01-3.58 137.51-4.3 138.44-5.53 139.36-6.75 139.69-8.25L139.69-8.25 140.31-5.5 139.54-5.5Q139.19-3.9 138.23-2.53 137.26-1.15 135.54-0.31 133.81 0.53 131.14 0.53ZM158.64 0.5L158.64 0.5Q155.81 0.5 154.09-0.35 152.36-1.2 151.59-2.93 150.81-4.65 150.81-7.23L150.81-7.23 150.81-22.63 154.81-22.63 154.81-7.7Q154.81-5.3 155.91-4.16 157.01-3.03 159.61-3.03L159.61-3.03Q161.09-3.03 162.45-3.35 163.81-3.68 165.01-4.28L165.01-4.28 164.64-0.8Q163.46-0.2 161.89 0.15 160.31 0.5 158.64 0.5ZM164.39-20.8L146.81-20.8 146.81-24.05 164.76-24.05 164.39-20.8ZM154.71-23.65L150.84-23.65 150.81-30.5 154.89-31.03 154.71-23.65ZM178.93 0.55L178.93 0.55Q173.68 0.55 171.12-2.29 168.56-5.13 168.56-10.33L168.56-10.33 168.56-14.13Q168.56-19.35 171.13-22.16 173.71-24.98 178.93-24.98L178.93-24.98Q180.48-24.98 181.76-24.69 183.03-24.4 184.05-23.94 185.06-23.48 185.76-22.98L185.76-22.98 186.11-19.45Q184.93-20.35 183.32-20.98 181.71-21.6 179.53-21.6L179.53-21.6Q176.03-21.6 174.32-19.66 172.61-17.73 172.61-14.03L172.61-14.03 172.61-10.43Q172.61-6.8 174.32-4.85 176.03-2.9 179.53-2.9L179.53-2.9Q181.78-2.9 183.42-3.53 185.06-4.15 186.33-5.05L186.33-5.05 185.96-1.48Q184.86-0.73 183.08-0.09 181.31 0.55 178.93 0.55ZM211.61 0L207.56 0 207.56-15.18Q207.56-17.15 207.02-18.57 206.48-20 205.27-20.79 204.06-21.58 201.96-21.58L201.96-21.58Q200.03-21.58 198.63-20.85 197.23-20.13 196.37-18.89 195.51-17.65 195.16-16.07L195.16-16.07 194.26-18.95 195.31-18.95Q195.68-20.6 196.68-21.96 197.68-23.33 199.37-24.14 201.06-24.95 203.48-24.95L203.48-24.95Q206.38-24.95 208.17-23.85 209.96-22.75 210.78-20.69 211.61-18.63 211.61-15.63L211.61-15.63 211.61 0ZM195.28 0L191.23 0 191.23-33.13 195.26-33.13 195.26-25.18 195.13-18.18 195.28-17.85 195.28 0ZM228.13 0.55L228.13 0.55Q222.55 0.55 219.73-2.18 216.9-4.9 216.9-9.98L216.9-9.98 216.9-14.33Q216.9-19.48 219.53-22.26 222.15-25.05 227.2-25.05L227.2-25.05Q230.6-25.05 232.88-23.79 235.15-22.53 236.3-20.2 237.45-17.88 237.45-14.65L237.45-14.65 237.45-13.75Q237.45-12.95 237.39-12.15 237.33-11.35 237.23-10.58L237.23-10.58 233.5-10.58Q233.55-11.78 233.57-12.85 233.58-13.93 233.58-14.83L233.58-14.83Q233.58-17.05 232.87-18.59 232.15-20.13 230.74-20.94 229.33-21.75 227.2-21.75L227.2-21.75Q224.05-21.75 222.48-19.93 220.9-18.1 220.9-14.7L220.9-14.7 220.9-12.38 220.93-11.88 220.93-9.55Q220.93-8.03 221.38-6.8 221.83-5.58 222.79-4.69 223.75-3.8 225.24-3.34 226.73-2.88 228.78-2.88L228.78-2.88Q231.15-2.88 233.2-3.5 235.25-4.13 237.05-5.2L237.05-5.2 236.68-1.7Q235.05-0.68 232.9-0.06 230.75 0.55 228.13 0.55ZM236.38-10.58L219.03-10.58 219.03-13.63 236.38-13.63 236.38-10.58ZM246.7-14.93L246.7-14.93 245.78-18.05 246.78-18.1Q247.58-21.2 249.53-22.99 251.48-24.78 254.7-24.78L254.7-24.78Q255.5-24.78 256.14-24.65 256.78-24.53 257.28-24.35L257.28-24.35 257.53-20.43Q256.9-20.63 256.14-20.75 255.38-20.88 254.45-20.88L254.45-20.88Q251.7-20.88 249.66-19.35 247.63-17.82 246.7-14.93ZM246.9 0L242.85 0 242.85-24.4 246.8-24.4 246.6-17.2 246.9-16.9 246.9 0ZM269.12 0.55L269.12 0.55Q266.17 0.55 263.97-0.09 261.77-0.73 260.32-1.48L260.32-1.48 259.95-5.23Q261.77-4.28 263.96-3.58 266.15-2.88 268.92-2.88L268.92-2.88Q271.75-2.88 273.17-3.78 274.6-4.67 274.6-6.45L274.6-6.45 274.6-6.73Q274.6-7.88 274.06-8.63 273.52-9.38 272.12-9.95 270.72-10.53 268.15-11.1L268.15-11.1Q265.07-11.78 263.3-12.69 261.52-13.6 260.76-14.95 260-16.3 260-18.25L260-18.25 260-18.48Q260-21.68 262.22-23.33 264.45-24.98 268.92-24.98L268.92-24.98Q271.8-24.98 273.91-24.33 276.02-23.68 277.37-22.88L277.37-22.88 277.75-19.45Q276.12-20.4 274.02-21.03 271.92-21.65 269.3-21.65L269.3-21.65Q267.4-21.65 266.22-21.26 265.05-20.88 264.52-20.16 264-19.45 264-18.45L264-18.45 264-18.25Q264-17.15 264.52-16.39 265.05-15.63 266.41-15.06 267.77-14.5 270.2-13.98L270.2-13.98Q273.32-13.35 275.16-12.48 277-11.6 277.8-10.26 278.6-8.93 278.6-6.83L278.6-6.83 278.6-6.4Q278.6-2.95 276.2-1.2 273.8 0.55 269.12 0.55Z" opacity="1" transform="matrix(1,0,0,1,0,0)" fill="#000000" class="wordmark-text-0" data-fill-palette-color="primary" id="text-0"></path></svg></g></svg></g><g transform="matrix(1,0,0,1,0,63.125941222960705)"><svg viewBox="0 0 232.20979199999996 13.417636201284795" height="13.417636201284795" width="232.20979199999996"><g transform="matrix(1,0,0,1,0,0)"><svg width="232.20979199999996" viewBox="1.63 -33.8 747.11 43.18" height="13.417636201284795" data-palette-color="#00c273"><path d="M14.83 0L8.22 0 1.63-31.95 5.88-31.95 10.53-8.08 11.4-3.48 11.85-3.48 12.7-8.08 17.38-31.13 23.5-31.13 28.18-8.08 29.03-3.48 29.48-3.48 30.38-8.08 35.02-31.95 39.23-31.95 32.65 0 26.1 0 22.4-18.38 20.65-27.7 20.25-27.7 18.48-18.38 14.83 0ZM64.55 0L60.5 0 60.5-15.18Q60.5-17.15 59.96-18.57 59.42-20 58.21-20.79 57-21.58 54.9-21.58L54.9-21.58Q52.97-21.58 51.57-20.85 50.17-20.13 49.31-18.89 48.45-17.65 48.1-16.07L48.1-16.07 47.2-18.95 48.25-18.95Q48.62-20.6 49.62-21.96 50.62-23.33 52.31-24.14 54-24.95 56.42-24.95L56.42-24.95Q59.32-24.95 61.11-23.85 62.9-22.75 63.72-20.69 64.55-18.63 64.55-15.63L64.55-15.63 64.55 0ZM48.22 0L44.17 0 44.17-33.13 48.2-33.13 48.2-25.18 48.07-18.18 48.22-17.85 48.22 0ZM81.07 0.55L81.07 0.55Q75.5 0.55 72.67-2.18 69.85-4.9 69.85-9.98L69.85-9.98 69.85-14.33Q69.85-19.48 72.47-22.26 75.1-25.05 80.15-25.05L80.15-25.05Q83.55-25.05 85.82-23.79 88.1-22.53 89.25-20.2 90.4-17.88 90.4-14.65L90.4-14.65 90.4-13.75Q90.4-12.95 90.33-12.15 90.27-11.35 90.17-10.58L90.17-10.58 86.45-10.58Q86.5-11.78 86.51-12.85 86.52-13.93 86.52-14.83L86.52-14.83Q86.52-17.05 85.81-18.59 85.1-20.13 83.68-20.94 82.27-21.75 80.15-21.75L80.15-21.75Q77-21.75 75.42-19.93 73.85-18.1 73.85-14.7L73.85-14.7 73.85-12.38 73.87-11.88 73.87-9.55Q73.87-8.03 74.32-6.8 74.77-5.58 75.73-4.69 76.7-3.8 78.18-3.34 79.67-2.88 81.72-2.88L81.72-2.88Q84.1-2.88 86.15-3.5 88.2-4.13 90-5.2L90-5.2 89.62-1.7Q88-0.68 85.85-0.06 83.7 0.55 81.07 0.55ZM89.32-10.58L71.97-10.58 71.97-13.63 89.32-13.63 89.32-10.58ZM99.64-14.93L99.64-14.93 98.72-18.05 99.72-18.1Q100.52-21.2 102.47-22.99 104.42-24.78 107.64-24.78L107.64-24.78Q108.44-24.78 109.08-24.65 109.72-24.53 110.22-24.35L110.22-24.35 110.47-20.43Q109.84-20.63 109.08-20.75 108.32-20.88 107.39-20.88L107.39-20.88Q104.64-20.88 102.61-19.35 100.57-17.82 99.64-14.93ZM99.84 0L95.79 0 95.79-24.4 99.74-24.4 99.54-17.2 99.84-16.9 99.84 0ZM124.69 0.55L124.69 0.55Q119.12 0.55 116.29-2.18 113.47-4.9 113.47-9.98L113.47-9.98 113.47-14.33Q113.47-19.48 116.09-22.26 118.72-25.05 123.77-25.05L123.77-25.05Q127.17-25.05 129.44-23.79 131.72-22.53 132.87-20.2 134.02-17.88 134.02-14.65L134.02-14.65 134.02-13.75Q134.02-12.95 133.95-12.15 133.89-11.35 133.79-10.58L133.79-10.58 130.07-10.58Q130.12-11.78 130.13-12.85 130.14-13.93 130.14-14.83L130.14-14.83Q130.14-17.05 129.43-18.59 128.72-20.13 127.3-20.94 125.89-21.75 123.77-21.75L123.77-21.75Q120.62-21.75 119.04-19.93 117.47-18.1 117.47-14.7L117.47-14.7 117.47-12.38 117.49-11.88 117.49-9.55Q117.49-8.03 117.94-6.8 118.39-5.58 119.35-4.69 120.32-3.8 121.8-3.34 123.29-2.88 125.34-2.88L125.34-2.88Q127.72-2.88 129.77-3.5 131.82-4.13 133.62-5.2L133.62-5.2 133.24-1.7Q131.62-0.68 129.47-0.06 127.32 0.55 124.69 0.55ZM132.94-10.58L115.59-10.58 115.59-13.63 132.94-13.63 132.94-10.58ZM158.16-3.78L160.49-3.78 158.36-2.85 165.66-24.4 169.84-24.4 158.36 8.6 154.26 8.6 158.11-2.55 159.89-1 155.28-1 147.31-24.4 151.51-24.4 158.16-3.78ZM183.91 0.63L183.91 0.63Q178.66 0.63 175.95-2.21 173.23-5.05 173.23-10.38L173.23-10.38 173.23-14.1Q173.23-19.4 175.96-22.23 178.68-25.05 183.91-25.05L183.91-25.05Q189.16-25.05 191.87-22.23 194.58-19.4 194.58-14.1L194.58-14.1 194.58-10.38Q194.58-5.05 191.87-2.21 189.16 0.63 183.91 0.63ZM183.91-2.68L183.91-2.68Q187.16-2.68 188.85-4.6 190.53-6.53 190.53-10.15L190.53-10.15 190.53-14.33Q190.53-17.93 188.85-19.84 187.16-21.75 183.91-21.75L183.91-21.75Q180.68-21.75 178.98-19.84 177.28-17.93 177.28-14.33L177.28-14.33 177.28-10.15Q177.28-6.53 178.98-4.6 180.68-2.68 183.91-2.68ZM199.91-24.4L203.93-24.4 203.93-9.22Q203.93-7.3 204.47-5.86 205.01-4.42 206.23-3.64 207.46-2.85 209.53-2.85L209.53-2.85Q211.48-2.85 212.88-3.56 214.28-4.28 215.17-5.53 216.06-6.78 216.38-8.35L216.38-8.35 217.11-5.48 216.23-5.48Q215.86-3.83 214.86-2.46 213.86-1.1 212.17-0.29 210.48 0.53 208.01 0.53L208.01 0.53Q205.13 0.53 203.34-0.56 201.56-1.65 200.73-3.74 199.91-5.83 199.91-8.78L199.91-8.78 199.91-24.4ZM216.21-24.4L220.26-24.4 220.26 0 216.21 0 216.38-5.85 216.21-6.1 216.21-24.4ZM230.7-14.93L230.7-14.93 229.78-18.05 230.78-18.1Q231.58-21.2 233.53-22.99 235.48-24.78 238.7-24.78L238.7-24.78Q239.5-24.78 240.14-24.65 240.78-24.53 241.28-24.35L241.28-24.35 241.53-20.43Q240.9-20.63 240.14-20.75 239.38-20.88 238.45-20.88L238.45-20.88Q235.7-20.88 233.67-19.35 231.63-17.82 230.7-14.93ZM230.9 0L226.85 0 226.85-24.4 230.8-24.4 230.6-17.2 230.9-16.9 230.9 0ZM267.62 0.53L267.62 0.53Q265.37 0.53 263.72-0.23 262.07-0.98 261.05-2.38 260.02-3.78 259.67-5.63L259.67-5.63 258.35-5.63 259.52-9.43Q259.62-7.23 260.51-5.76 261.4-4.3 262.92-3.58 264.45-2.85 266.37-2.85L266.37-2.85Q269.45-2.85 271.09-4.65 272.72-6.45 272.72-9.93L272.72-9.93 272.72-14.6Q272.72-18.05 271.1-19.85 269.47-21.65 266.37-21.65L266.37-21.65Q264.52-21.65 263.1-20.93 261.67-20.2 260.74-18.95 259.8-17.7 259.45-16.1L259.45-16.1 258.45-18.93 259.62-18.93Q260.02-20.6 260.99-21.96 261.95-23.33 263.64-24.14 265.32-24.95 267.8-24.95L267.8-24.95Q272.2-24.95 274.5-22.21 276.8-19.48 276.8-14.28L276.8-14.28 276.8-10.23Q276.8-4.98 274.49-2.23 272.17 0.53 267.62 0.53ZM259.62 8.6L255.6 8.6 255.6-24.4 259.65-24.4 259.47-18.53 259.52-17.28 259.52-7 259.5-6.18 259.62 0.68 259.62 8.6ZM292.7 0.55L292.7 0.55Q287.12 0.55 284.3-2.18 281.47-4.9 281.47-9.98L281.47-9.98 281.47-14.33Q281.47-19.48 284.1-22.26 286.72-25.05 291.77-25.05L291.77-25.05Q295.17-25.05 297.45-23.79 299.72-22.53 300.87-20.2 302.02-17.88 302.02-14.65L302.02-14.65 302.02-13.75Q302.02-12.95 301.96-12.15 301.9-11.35 301.8-10.58L301.8-10.58 298.07-10.58Q298.12-11.78 298.13-12.85 298.15-13.93 298.15-14.83L298.15-14.83Q298.15-17.05 297.43-18.59 296.72-20.13 295.31-20.94 293.9-21.75 291.77-21.75L291.77-21.75Q288.62-21.75 287.05-19.93 285.47-18.1 285.47-14.7L285.47-14.7 285.47-12.38 285.5-11.88 285.5-9.55Q285.5-8.03 285.95-6.8 286.4-5.58 287.36-4.69 288.32-3.8 289.81-3.34 291.3-2.88 293.35-2.88L293.35-2.88Q295.72-2.88 297.77-3.5 299.82-4.13 301.62-5.2L301.62-5.2 301.25-1.7Q299.62-0.68 297.47-0.06 295.32 0.55 292.7 0.55ZM300.95-10.58L283.6-10.58 283.6-13.63 300.95-13.63 300.95-10.58ZM316.29 0.5L316.29 0.5Q313.47 0.5 311.74-0.35 310.02-1.2 309.24-2.93 308.47-4.65 308.47-7.23L308.47-7.23 308.47-22.63 312.47-22.63 312.47-7.7Q312.47-5.3 313.57-4.16 314.67-3.03 317.27-3.03L317.27-3.03Q318.74-3.03 320.11-3.35 321.47-3.68 322.67-4.28L322.67-4.28 322.29-0.8Q321.12-0.2 319.54 0.15 317.97 0.5 316.29 0.5ZM322.04-20.8L304.47-20.8 304.47-24.05 322.42-24.05 322.04-20.8ZM312.37-23.65L308.49-23.65 308.47-30.5 312.54-31.03 312.37-23.65ZM334.82 0.55L334.82 0.55Q331.87 0.55 329.67-0.09 327.47-0.73 326.02-1.48L326.02-1.48 325.64-5.23Q327.47-4.28 329.65-3.58 331.84-2.88 334.62-2.88L334.62-2.88Q337.44-2.88 338.87-3.78 340.29-4.67 340.29-6.45L340.29-6.45 340.29-6.73Q340.29-7.88 339.75-8.63 339.22-9.38 337.82-9.95 336.42-10.53 333.84-11.1L333.84-11.1Q330.77-11.78 328.99-12.69 327.22-13.6 326.45-14.95 325.69-16.3 325.69-18.25L325.69-18.25 325.69-18.48Q325.69-21.68 327.92-23.33 330.14-24.98 334.62-24.98L334.62-24.98Q337.49-24.98 339.6-24.33 341.72-23.68 343.07-22.88L343.07-22.88 343.44-19.45Q341.82-20.4 339.72-21.03 337.62-21.65 334.99-21.65L334.99-21.65Q333.09-21.65 331.92-21.26 330.74-20.88 330.22-20.16 329.69-19.45 329.69-18.45L329.69-18.45 329.69-18.25Q329.69-17.15 330.22-16.39 330.74-15.63 332.1-15.06 333.47-14.5 335.89-13.98L335.89-13.98Q339.02-13.35 340.85-12.48 342.69-11.6 343.49-10.26 344.29-8.93 344.29-6.83L344.29-6.83 344.29-6.4Q344.29-2.95 341.89-1.2 339.49 0.55 334.82 0.55ZM367.54-33.8L367.54-33.8Q369.41-33.8 370.9-33.46 372.39-33.13 373.64-32.63L373.64-32.63 374.04-29.45Q372.81-29.9 371.57-30.16 370.34-30.43 368.79-30.43L368.79-30.43Q366.91-30.43 365.77-29.94 364.64-29.45 364.15-28.56 363.66-27.68 363.66-26.43L363.66-26.43 363.66-26.3Q363.66-25.43 363.89-24.64 364.11-23.85 364.39-23.2L364.39-23.2 361.66-23.1 361.66-23.6Q360.89-24.2 360.3-25.28 359.71-26.35 359.71-27.78L359.71-27.78 359.71-27.9Q359.71-30.58 361.61-32.19 363.51-33.8 367.54-33.8ZM364.56 0L360.54 0 360.54-22.23 364.56-22.23 364.56 0ZM373.56-20.25L356.51-20.25 356.51-23.48 362.09-23.45 363.74-23.48 373.94-23.48 373.56-20.25ZM388.36 0.55L388.36 0.55Q382.78 0.55 379.96-2.18 377.13-4.9 377.13-9.98L377.13-9.98 377.13-14.33Q377.13-19.48 379.76-22.26 382.38-25.05 387.43-25.05L387.43-25.05Q390.83-25.05 393.11-23.79 395.38-22.53 396.53-20.2 397.68-17.88 397.68-14.65L397.68-14.65 397.68-13.75Q397.68-12.95 397.62-12.15 397.56-11.35 397.46-10.58L397.46-10.58 393.73-10.58Q393.78-11.78 393.8-12.85 393.81-13.93 393.81-14.83L393.81-14.83Q393.81-17.05 393.1-18.59 392.38-20.13 390.97-20.94 389.56-21.75 387.43-21.75L387.43-21.75Q384.28-21.75 382.71-19.93 381.13-18.1 381.13-14.7L381.13-14.7 381.13-12.38 381.16-11.88 381.16-9.55Q381.16-8.03 381.61-6.8 382.06-5.58 383.02-4.69 383.98-3.8 385.47-3.34 386.96-2.88 389.01-2.88L389.01-2.88Q391.38-2.88 393.43-3.5 395.48-4.13 397.28-5.2L397.28-5.2 396.91-1.7Q395.28-0.68 393.13-0.06 390.98 0.55 388.36 0.55ZM396.61-10.58L379.26-10.58 379.26-13.63 396.61-13.63 396.61-10.58ZM413.33 0.55L413.33 0.55Q407.76 0.55 404.93-2.18 402.11-4.9 402.11-9.98L402.11-9.98 402.11-14.33Q402.11-19.48 404.73-22.26 407.36-25.05 412.41-25.05L412.41-25.05Q415.81-25.05 418.08-23.79 420.36-22.53 421.51-20.2 422.66-17.88 422.66-14.65L422.66-14.65 422.66-13.75Q422.66-12.95 422.59-12.15 422.53-11.35 422.43-10.58L422.43-10.58 418.71-10.58Q418.76-11.78 418.77-12.85 418.78-13.93 418.78-14.83L418.78-14.83Q418.78-17.05 418.07-18.59 417.36-20.13 415.94-20.94 414.53-21.75 412.41-21.75L412.41-21.75Q409.26-21.75 407.68-19.93 406.11-18.1 406.11-14.7L406.11-14.7 406.11-12.38 406.13-11.88 406.13-9.55Q406.13-8.03 406.58-6.8 407.03-5.58 407.99-4.69 408.96-3.8 410.44-3.34 411.93-2.88 413.98-2.88L413.98-2.88Q416.36-2.88 418.41-3.5 420.46-4.13 422.26-5.2L422.26-5.2 421.88-1.7Q420.26-0.68 418.11-0.06 415.96 0.55 413.33 0.55ZM421.58-10.58L404.23-10.58 404.23-13.63 421.58-13.63 421.58-10.58ZM432.2 0L428.18 0 428.18-33.13 432.2-33.13 432.2 0ZM452.87-14.93L452.87-14.93 451.95-18.05 452.95-18.1Q453.75-21.2 455.7-22.99 457.65-24.78 460.87-24.78L460.87-24.78Q461.67-24.78 462.31-24.65 462.95-24.53 463.45-24.35L463.45-24.35 463.7-20.43Q463.07-20.63 462.31-20.75 461.55-20.88 460.62-20.88L460.62-20.88Q457.87-20.88 455.84-19.35 453.8-17.82 452.87-14.93ZM453.07 0L449.02 0 449.02-24.4 452.97-24.4 452.77-17.2 453.07-16.9 453.07 0ZM471.8 0L467.75 0 467.75-24.4 471.8-24.4 471.8 0ZM469.77-28.4L469.77-28.4Q468.52-28.4 467.91-29.06 467.3-29.73 467.3-30.88L467.3-30.88 467.3-31Q467.3-32.18 467.91-32.83 468.52-33.48 469.77-33.48L469.77-33.48Q471.02-33.48 471.65-32.83 472.27-32.18 472.27-31L472.27-31 472.27-30.88Q472.27-29.7 471.65-29.05 471.02-28.4 469.77-28.4ZM487.99-7.3L487.99-7.3Q483.02-7.3 480.36-9.47 477.69-11.65 477.69-15.7L477.69-15.7 477.69-16.32Q477.69-18.85 478.73-20.73 479.77-22.6 482.04-23.66 484.32-24.73 487.99-24.83L487.99-24.83 500.44-25.23 500.44-22.03 493.09-22.28 493.07-22.1Q494.79-21.75 495.89-20.9 496.99-20.05 497.53-18.78 498.07-17.5 498.07-15.8L498.07-15.8 498.07-15.25Q498.07-11.38 495.52-9.34 492.97-7.3 487.99-7.3ZM487.82 6.15L487.82 6.15 488.39 6.15Q490.64 6.15 492.26 5.81 493.87 5.48 494.74 4.75 495.62 4.03 495.62 2.83L495.62 2.83 495.62 2.73Q495.62 1.33 494.61 0.59 493.59-0.15 491.14-0.38L491.14-0.38 484.24-1 485.39-1.05Q483.99-0.85 482.93-0.4 481.87 0.05 481.27 0.79 480.67 1.53 480.67 2.63L480.67 2.63 480.67 2.68Q480.67 3.95 481.54 4.73 482.42 5.5 484.02 5.83 485.62 6.15 487.82 6.15ZM488.32 9.38L487.59 9.38Q484.29 9.38 481.91 8.81 479.52 8.25 478.21 6.99 476.89 5.73 476.89 3.6L476.89 3.6 476.89 3.5Q476.89 2 477.61 1 478.32 0 479.53-0.58 480.74-1.15 482.24-1.35L482.24-1.35 482.22-1.5Q480.17-1.85 479.19-2.71 478.22-3.58 478.22-4.95L478.22-4.95 478.22-4.98Q478.22-5.93 478.66-6.6 479.09-7.28 479.98-7.68 480.87-8.08 482.24-8.18L482.24-8.18 482.24-8.68 486.89-7.5 484.99-7.55Q483.29-7.53 482.64-7.14 481.99-6.75 481.99-5.98L481.99-5.98 481.99-5.95Q481.99-5.13 482.92-4.7 483.84-4.28 486.07-4.03L486.07-4.03 491.99-3.43Q495.87-3.03 497.64-1.56 499.42-0.1 499.42 2.75L499.42 2.75 499.42 2.88Q499.42 5.15 498.07 6.6 496.72 8.05 494.24 8.71 491.77 9.38 488.32 9.38L488.32 9.38ZM487.94-10.3L487.94-10.3Q490.04-10.3 491.43-10.91 492.82-11.53 493.53-12.76 494.24-14 494.24-15.8L494.24-15.8 494.24-16.4Q494.24-18.15 493.56-19.38 492.87-20.6 491.49-21.24 490.12-21.88 488.04-21.88L488.04-21.88 487.89-21.88Q485.64-21.88 484.23-21.19 482.82-20.5 482.18-19.26 481.54-18.03 481.54-16.38L481.54-16.38 481.54-15.8Q481.54-14 482.26-12.78 482.97-11.55 484.39-10.93 485.82-10.3 487.94-10.3ZM524.49 0L520.44 0 520.44-15.18Q520.44-17.15 519.9-18.57 519.37-20 518.15-20.79 516.94-21.58 514.84-21.58L514.84-21.58Q512.92-21.58 511.52-20.85 510.12-20.13 509.25-18.89 508.39-17.65 508.04-16.07L508.04-16.07 507.14-18.95 508.19-18.95Q508.57-20.6 509.57-21.96 510.57-23.33 512.25-24.14 513.94-24.95 516.37-24.95L516.37-24.95Q519.27-24.95 521.05-23.85 522.84-22.75 523.67-20.69 524.49-18.63 524.49-15.63L524.49-15.63 524.49 0ZM508.17 0L504.12 0 504.12-33.13 508.14-33.13 508.14-25.18 508.02-18.18 508.17-17.85 508.17 0ZM539.64 0.5L539.64 0.5Q536.81 0.5 535.09-0.35 533.36-1.2 532.59-2.93 531.81-4.65 531.81-7.23L531.81-7.23 531.81-22.63 535.81-22.63 535.81-7.7Q535.81-5.3 536.91-4.16 538.01-3.03 540.61-3.03L540.61-3.03Q542.09-3.03 543.45-3.35 544.81-3.68 546.01-4.28L546.01-4.28 545.64-0.8Q544.46-0.2 542.89 0.15 541.31 0.5 539.64 0.5ZM545.39-20.8L527.81-20.8 527.81-24.05 545.76-24.05 545.39-20.8ZM535.71-23.65L531.84-23.65 531.81-30.5 535.89-31.03 535.71-23.65ZM579.13 0L575.11 0 575.28-5.93 575.13-6.55 575.13-14.33 575.16-15.75Q575.16-18.73 573.64-20.15 572.13-21.58 568.86-21.58L568.86-21.58Q566.23-21.58 564.04-20.83 561.86-20.08 560.16-19.07L560.16-19.07 560.53-22.53Q561.48-23.1 562.79-23.66 564.11-24.23 565.79-24.6 567.48-24.98 569.51-24.98L569.51-24.98Q572.13-24.98 573.97-24.34 575.81-23.7 576.94-22.5 578.08-21.3 578.61-19.6 579.13-17.9 579.13-15.8L579.13-15.8 579.13 0ZM566.71 0.53L566.71 0.53Q563.08 0.53 561.14-1.24 559.21-3 559.21-6.28L559.21-6.28 559.21-7Q559.21-10.38 561.29-12.04 563.38-13.7 567.93-14.35L567.93-14.35 575.66-15.45 575.88-12.5 568.43-11.43Q565.63-11.03 564.43-10.06 563.23-9.1 563.23-7.23L563.23-7.23 563.23-6.83Q563.23-4.9 564.42-3.88 565.61-2.85 567.98-2.85L567.98-2.85Q570.08-2.85 571.58-3.58 573.08-4.3 574.01-5.53 574.93-6.75 575.26-8.25L575.26-8.25 575.88-5.5 575.11-5.5Q574.76-3.9 573.79-2.53 572.83-1.15 571.11-0.31 569.38 0.53 566.71 0.53ZM594.2 0.5L594.2 0.5Q591.38 0.5 589.65-0.35 587.93-1.2 587.15-2.93 586.38-4.65 586.38-7.23L586.38-7.23 586.38-22.63 590.38-22.63 590.38-7.7Q590.38-5.3 591.48-4.16 592.58-3.03 595.18-3.03L595.18-3.03Q596.65-3.03 598.02-3.35 599.38-3.68 600.58-4.28L600.58-4.28 600.2-0.8Q599.03-0.2 597.45 0.15 595.88 0.5 594.2 0.5ZM599.95-20.8L582.38-20.8 582.38-24.05 600.33-24.05 599.95-20.8ZM590.28-23.65L586.4-23.65 586.38-30.5 590.45-31.03 590.28-23.65ZM635.57 0L631.52 0 631.52-15.18Q631.52-17.15 630.99-18.57 630.45-20 629.24-20.79 628.02-21.58 625.92-21.58L625.92-21.58Q624-21.58 622.6-20.85 621.2-20.13 620.34-18.89 619.47-17.65 619.12-16.07L619.12-16.07 618.22-18.95 619.27-18.95Q619.65-20.6 620.65-21.96 621.65-23.33 623.34-24.14 625.02-24.95 627.45-24.95L627.45-24.95Q630.35-24.95 632.14-23.85 633.92-22.75 634.75-20.69 635.57-18.63 635.57-15.63L635.57-15.63 635.57 0ZM619.25 0L615.2 0 615.2-33.13 619.22-33.13 619.22-25.18 619.1-18.18 619.25-17.85 619.25 0ZM651.55 0.63L651.55 0.63Q646.3 0.63 643.58-2.21 640.87-5.05 640.87-10.38L640.87-10.38 640.87-14.1Q640.87-19.4 643.6-22.23 646.32-25.05 651.55-25.05L651.55-25.05Q656.8-25.05 659.51-22.23 662.22-19.4 662.22-14.1L662.22-14.1 662.22-10.38Q662.22-5.05 659.51-2.21 656.8 0.63 651.55 0.63ZM651.55-2.68L651.55-2.68Q654.8-2.68 656.48-4.6 658.17-6.53 658.17-10.15L658.17-10.15 658.17-14.33Q658.17-17.93 656.48-19.84 654.8-21.75 651.55-21.75L651.55-21.75Q648.32-21.75 646.62-19.84 644.92-17.93 644.92-14.33L644.92-14.33 644.92-10.15Q644.92-6.53 646.62-4.6 648.32-2.68 651.55-2.68ZM702.37 0L698.32 0 698.32-15.28Q698.32-17.2 697.83-18.61 697.34-20.03 696.23-20.8 695.12-21.58 693.24-21.58L693.24-21.58Q691.47-21.58 690.17-20.85 688.87-20.13 688.07-18.91 687.27-17.7 686.94-16.15L686.94-16.15 686.32-19.03 686.82-19.03Q687.22-20.6 688.17-21.95 689.12-23.3 690.74-24.13 692.37-24.95 694.77-24.95L694.77-24.95Q697.49-24.95 699.16-23.88 700.82-22.8 701.59-20.74 702.37-18.68 702.37-15.73L702.37-15.73 702.37 0ZM671.89 0L667.84 0 667.84-24.4 671.89-24.4 671.72-18.55 671.89-18.3 671.89 0ZM687.12 0L683.09 0 683.09-15.28Q683.09-17.2 682.61-18.61 682.12-20.03 681.02-20.8 679.92-21.58 678.04-21.58L678.04-21.58Q676.24-21.58 674.94-20.85 673.64-20.13 672.84-18.89 672.04-17.65 671.72-16.07L671.72-16.07 670.97-18.95 671.87-18.95Q672.24-20.6 673.17-21.96 674.09-23.33 675.68-24.14 677.27-24.95 679.54-24.95L679.54-24.95Q682.92-24.95 684.68-23.2 686.44-21.45 686.89-18.1L686.89-18.1Q687.02-17.6 687.07-17.01 687.12-16.43 687.12-15.85L687.12-15.85 687.12 0ZM718.89 0.55L718.89 0.55Q713.32 0.55 710.49-2.18 707.67-4.9 707.67-9.98L707.67-9.98 707.67-14.33Q707.67-19.48 710.29-22.26 712.92-25.05 717.97-25.05L717.97-25.05Q721.37-25.05 723.64-23.79 725.92-22.53 727.07-20.2 728.22-17.88 728.22-14.65L728.22-14.65 728.22-13.75Q728.22-12.95 728.15-12.15 728.09-11.35 727.99-10.58L727.99-10.58 724.27-10.58Q724.32-11.78 724.33-12.85 724.34-13.93 724.34-14.83L724.34-14.83Q724.34-17.05 723.63-18.59 722.92-20.13 721.5-20.94 720.09-21.75 717.97-21.75L717.97-21.75Q714.82-21.75 713.24-19.93 711.67-18.1 711.67-14.7L711.67-14.7 711.67-12.38 711.69-11.88 711.69-9.55Q711.69-8.03 712.14-6.8 712.59-5.58 713.55-4.69 714.52-3.8 716-3.34 717.49-2.88 719.54-2.88L719.54-2.88Q721.92-2.88 723.97-3.5 726.02-4.13 727.82-5.2L727.82-5.2 727.44-1.7Q725.82-0.68 723.67-0.06 721.52 0.55 718.89 0.55ZM727.14-10.58L709.79-10.58 709.79-13.63 727.14-13.63 727.14-10.58ZM748.36-31.95L747.89-9.83 744.51-9.83 744.04-31.95 748.36-31.95ZM746.19 0.48L746.19 0.48Q744.91 0.48 744.29-0.24 743.66-0.95 743.66-2.25L743.66-2.25 743.66-2.5Q743.66-3.78 744.29-4.48 744.91-5.18 746.19-5.18L746.19-5.18Q747.49-5.18 748.11-4.48 748.74-3.78 748.74-2.5L748.74-2.5 748.74-2.25Q748.74-0.95 748.11-0.24 747.49 0.48 746.19 0.48Z" opacity="1" transform="matrix(1,0,0,1,0,0)" fill="#000000" class="slogan-text-1" data-fill-palette-color="secondary" id="text-1"></path></svg></g></svg></g></svg></g></svg></g><g><svg viewBox="0 0 207.57752490351686 200.3910856966747" height="200.3910856966747" width="207.57752490351686"><g><svg xmlns="http://www.w3.org/2000/svg" xmlns:xlink="http://www.w3.org/1999/xlink" version="1.1" x="0" y="0" viewBox="5.000872413964163 6.559 89.9988954705871 86.8830880570295" enable-background="new 0 0 100 100" xml:space="preserve" height="200.3910856966747" width="207.57752490351686" class="icon-icon-0" data-fill-palette-color="accent" id="icon-0"><g fill="#00c273" data-fill-palette-color="accent"><path d="M72.256 22.063C72.747 22.251 73.25 22.343 73.75 22.343H73.752C76.962 22.343 79.36 18.633 80.07 14.969 80.822 11.101 79.651 8.037 77.016 6.977 76.316 6.697 75.687 6.559 75.09 6.559 74.745 6.559 74.403 6.607 74.078 6.703 70.489 7.764 68.474 11.825 68.341 15.292 68.217 18.549 69.681 21.079 72.256 22.063M69.962 15.354C70.071 12.535 71.713 9.09 74.538 8.254 75.049 8.105 75.64 8.172 76.411 8.481 78.648 9.382 78.945 12.264 78.478 14.664 77.902 17.643 75.978 20.725 73.751 20.725 73.444 20.725 73.137 20.666 72.834 20.55 70.096 19.505 69.912 16.568 69.962 15.354" fill="#000000" data-fill-palette-color="accent"></path><path d="M83.467 28.776C87.031 28.776 92.389 25.361 93.326 21.528 93.643 20.237 93.672 17.808 90.338 16.076 89.589 15.682 88.743 15.485 87.825 15.485 83.957 15.485 79.345 19.134 78.515 22.853 77.988 25.215 79.084 27.229 81.529 28.375 82.088 28.641 82.742 28.776 83.467 28.776M80.097 23.207C80.757 20.241 84.732 17.105 87.826 17.105 88.482 17.105 89.077 17.242 89.594 17.512 91.412 18.458 92.12 19.645 91.755 21.144 91.065 23.951 86.651 27.154 83.468 27.154 82.982 27.154 82.562 27.072 82.217 26.913 80.448 26.081 79.733 24.835 80.097 23.207" fill="#000000" data-fill-palette-color="accent"></path><path d="M61.88 23.918H61.945A1 1 0 0 0 62.133 23.897C63.924 23.466 65.394 22.056 66.276 19.925 67.43 17.121 67.338 13.708 66.049 11.622 64.942 9.821 63.08 8.702 61.189 8.702 60.412 8.702 59.685 8.893 59.024 9.265 56.164 10.885 55.831 14.554 56.472 17.445 57.131 20.412 59.103 23.7 61.88 23.918M59.824 10.675A2.9 2.9 0 0 1 61.257 10.294C62.536 10.294 63.843 11.128 64.673 12.472 65.672 14.094 65.717 17.033 64.777 19.308 64.403 20.217 63.531 21.81 61.907 22.282L61.885 22.288 61.862 22.284C60.269 22.039 58.669 19.857 58.053 17.098 57.536 14.771 57.729 11.86 59.824 10.675" fill="#000000" data-fill-palette-color="accent"></path><path d="M94.071 31.771C92.995 30.41 91.318 29.662 89.351 29.662 86.724 29.662 83.945 30.96 82.273 32.967 81.049 34.437 80.547 36.18 80.858 37.87A0.8 0.8 0 0 0 80.921 38.063C81.431 39.162 81.883 39.898 82.693 40.405L83.19 40.661C84.361 41.265 85.56 41.884 86.785 41.911L87.11 41.922C89.848 41.92 93.046 39.744 94.386 36.963 95.303 35.069 95.188 33.177 94.071 31.771M92.929 36.259C91.854 38.488 89.242 40.302 87.11 40.302L86.858 40.293C85.971 40.272 84.981 39.764 83.936 39.223L83.495 38.999C83.142 38.774 82.849 38.354 82.445 37.494L82.433 37.465C82.201 35.96 82.898 34.751 83.522 34.001 84.874 32.374 87.217 31.284 89.352 31.284 90.386 31.284 91.824 31.542 92.802 32.777 93.733 33.95 93.385 35.318 92.929 36.259" fill="#000000" data-fill-palette-color="accent"></path><path d="M73.671 27.358C71.544 25.832 69.012 25.055 66.142 25.055 61.333 25.055 55.999 27.358 52.223 31.059 50.774 32.478 49.452 33.891 49.232 35.579 48.756 39.298 52.88 40.849 56.193 42.095L56.23 42.109C57.719 42.669 59.123 43.2 59.965 43.829 61.218 44.766 62.082 46.371 62.999 48.071 64.327 50.547 65.692 53.084 68.414 53.803 68.688 53.875 68.972 53.912 69.26 53.912 72.644 53.912 75.548 49.012 76.734 46.116 79.145 40.206 79.79 31.746 73.671 27.358M75.229 45.505C73.887 48.795 71.339 52.292 69.261 52.292A1.8 1.8 0 0 1 68.827 52.238C66.787 51.698 65.647 49.581 64.439 47.339 63.474 45.538 62.485 43.692 60.932 42.53 59.901 41.759 58.374 41.185 56.761 40.578 53.109 39.204 50.544 38.056 50.837 35.787 50.988 34.616 52.114 33.43 53.355 32.216 56.84 28.8 61.74 26.676 66.14 26.676 68.663 26.676 70.878 27.35 72.724 28.677 78.082 32.511 77.421 40.14 75.229 45.505" fill="#000000" data-fill-palette-color="accent"></path><path d="M60.206 67.699A10.12 10.12 0 0 0 52.993 67.535L52.811 67.598 52.73 67.423 33.642 26.015 33.809 25.916C38.101 23.459 39.98 18.124 38.185 13.511A10.03 10.03 0 0 0 28.78 7.077C27.529 7.077 26.299 7.306 25.123 7.764A10.06 10.06 0 0 0 19.196 14.011L19.126 14.228 18.914 14.142A10 10 0 0 0 15.097 13.387 10.06 10.06 0 0 0 5.754 19.656C3.645 24.805 6.118 30.707 11.267 32.815 13.556 33.755 16.147 33.813 18.479 32.982L18.661 32.915 18.743 33.095 37.83 74.5 37.662 74.599C33.373 77.056 31.494 82.39 33.286 87.008A10.04 10.04 0 0 0 42.698 93.442C43.949 93.442 45.179 93.209 46.355 92.752A10.06 10.06 0 0 0 52.275 86.503L52.345 86.284 52.557 86.372C53.782 86.875 55.068 87.129 56.379 87.129 60.495 87.129 64.162 84.668 65.72 80.86A10.02 10.02 0 0 0 65.689 73.14 10.03 10.03 0 0 0 60.206 67.699M62.723 82.626A8.45 8.45 0 0 1 51.139 83.662C50.981 87.827 47.717 91.34 43.524 91.756 43.244 91.786 42.959 91.798 42.675 91.798A8.42 8.42 0 0 1 34.28 84.183 8.49 8.49 0 0 1 38.315 76.114 8 8 0 0 1 39.245 75.632 8 8 0 0 1 40 75.336L19.435 30.729A8.4 8.4 0 0 1 17.747 31.506 8.5 8.5 0 0 1 15.086 31.932 8.4 8.4 0 0 1 9.496 29.813 8.38 8.38 0 0 1 6.653 24.006 8.4 8.4 0 0 1 8.751 17.887 8.46 8.46 0 0 1 20.336 16.853C20.495 12.688 23.755 9.175 27.946 8.756A9 9 0 0 1 28.786 8.715 8.424 8.424 0 0 1 37.191 16.334 8.51 8.51 0 0 1 33.155 24.405C32.858 24.585 32.543 24.746 32.223 24.887A8 8 0 0 1 31.47 25.183L52.036 69.787C52.268 69.645 52.507 69.518 52.748 69.404 53.09 69.244 53.408 69.117 53.724 69.012A8.5 8.5 0 0 1 56.388 68.584C58.445 68.584 60.43 69.334 61.976 70.697A8.4 8.4 0 0 1 64.821 76.508 8.4 8.4 0 0 1 62.723 82.626" fill="#000000" data-fill-palette-color="accent"></path></g></svg></g></svg></g></svg></g><defs></defs></svg><rect width="395.52" height="128.55915170385362" fill="none" stroke="none" visibility="hidden"></rect></g></svg></g></svg>